<?xml version="1.0" encoding="UTF-8"?>
<!DOCTYPE svg PUBLIC "-//W3C//DTD SVG 1.1//EN"
  "http://www.w3.org/Graphics/SVG/1.1/DTD/svg11.dtd">
<!-- Created with Inkpad (http://inkpad.envoza.com/) --><svg height="512pt" viewBox="0,0,512,512" xmlns:xlink="http://www.w3.org/1999/xlink" xmlns="http://www.w3.org/2000/svg" width="512pt" xmlns:inkscape="http://www.inkscape.org/namespaces/inkscape" version="1.1" xmlns:inkpad="http://inkpad.envoza.com/svg_extensions">
<defs/>
<g id="Unti-tled" inkscape:label="Unti-tled" inkscape:groupmode="layer" inkpad:layerName="Unti-tled">
<path d="M228.825+125.637L230.006+125.637L230.006+125.637L228.825+125.637Z" opacity="1" fill="#ffffff"/>
<path d="M204.406+126.818L205.588+126.818L205.588+128.788L204.406+128.788L204.406+126.818Z" opacity="1" fill="#ffffff"/>
<path stroke="#001eff" stroke-width="15" d="M131.151+132.726" fill="#ffffff" stroke-linecap="round" opacity="1" stroke-linejoin="round"/>
<path d="M144.935+138.634" stroke="#001eff" stroke-width="15" fill="none" opacity="1" stroke-linejoin="round"/>
<g opacity="1">
<g opacity="1">
<path d="M229.122+473.542C229.122+459.512+241.201+448.139+256.101+448.139C271+448.139+283.079+459.512+283.079+473.542C283.079+487.571+271+498.945+256.101+498.945C241.201+498.945+229.122+487.571+229.122+473.542Z" stroke="#ffffff" stroke-width="15" fill="none" opacity="1" stroke-linejoin="round"/>
<path stroke="#ffffff" stroke-width="15" d="M256.556+414.92L256.95+446.428" fill="none" stroke-linecap="round" opacity="1" stroke-linejoin="round"/>
</g>
<g opacity="1">
<g opacity="1">
<path d="M60.7007+88.2894C60.7007+74.2596+72.7793+62.8863+87.6791+62.8863C102.579+62.8863+114.658+74.2596+114.658+88.2894C114.658+102.319+102.579+113.692+87.6791+113.692C72.7793+113.692+60.7007+102.319+60.7007+88.2894Z" stroke="#ffffff" stroke-width="15" fill="none" opacity="1" stroke-linejoin="round"/>
<path stroke="#ffffff" stroke-width="15" d="M127.655+127.477L106.781+106.209" fill="none" stroke-linecap="round" opacity="1" stroke-linejoin="round"/>
</g>
<g opacity="1">
<path d="M11.3837+256.376C11.3837+242.346+23.4624+230.972+38.3622+230.972C53.262+230.972+65.3407+242.346+65.3407+256.376C65.3407+270.405+53.262+281.779+38.3622+281.779C23.4624+281.779+11.3837+270.405+11.3837+256.376Z" stroke="#ffffff" stroke-width="15" fill="none" opacity="1" stroke-linejoin="round"/>
<path stroke="#ffffff" stroke-width="15" d="M119.778+257.84L68.5776+257.84" fill="none" stroke-linecap="round" opacity="1" stroke-linejoin="round"/>
</g>
<g opacity="1">
<path d="M69.9807+416.979C69.9807+402.949+82.0593+391.576+96.9591+391.576C111.859+391.576+123.938+402.949+123.938+416.979C123.938+431.008+111.859+442.382+96.9591+442.382C82.0593+442.382+69.9807+431.008+69.9807+416.979Z" stroke="#ffffff" stroke-width="15" fill="none" opacity="1" stroke-linejoin="round"/>
<path stroke="#ffffff" stroke-width="15" d="M157.193+356.696L117.415+396.08" fill="none" stroke-linecap="round" opacity="1" stroke-linejoin="round"/>
</g>
</g>
<g opacity="1">
<g opacity="1">
<path d="M502.904+257.471C502.904+243.441+490.825+232.068+475.925+232.068C461.025+232.068+448.947+243.441+448.947+257.471C448.947+271.501+461.025+282.874+475.925+282.874C490.825+282.874+502.904+271.501+502.904+257.471Z" stroke="#ffffff" stroke-width="15" fill="none" opacity="1" stroke-linejoin="round"/>
<path stroke="#ffffff" stroke-width="15" d="M394.51+258.936L445.71+258.936" fill="none" stroke-linecap="round" opacity="1" stroke-linejoin="round"/>
</g>
<g opacity="1">
<path d="M441.55+417.372C441.55+403.343+429.471+391.969+414.571+391.969C399.672+391.969+387.593+403.343+387.593+417.372C387.593+431.402+399.672+442.776+414.571+442.776C429.471+442.776+441.55+431.402+441.55+417.372Z" stroke="#ffffff" stroke-width="15" fill="none" opacity="1" stroke-linejoin="round"/>
<path stroke="#ffffff" stroke-width="15" d="M354.338+357.089L394.116+396.474" fill="none" stroke-linecap="round" opacity="1" stroke-linejoin="round"/>
</g>
<g opacity="1">
<path d="M449.033+88.2894C449.033+74.2596+436.954+62.8863+422.054+62.8863C407.155+62.8863+395.076+74.2596+395.076+88.2894C395.076+102.319+407.155+113.692+422.054+113.692C436.954+113.692+449.033+102.319+449.033+88.2894Z" stroke="#ffffff" stroke-width="15" fill="none" opacity="1" stroke-linejoin="round"/>
<path stroke="#ffffff" stroke-width="15" d="M382.079+127.477L402.953+106.209" fill="none" stroke-linecap="round" opacity="1" stroke-linejoin="round"/>
</g>
</g>
<g opacity="1">
<g opacity="1">
<path d="M145.758+287.001L256.66+391.446L367.723+286.621L366.961+151.652L255.788+114.341L255.548+114.086L145.186+152.033L145.758+287.001Z" stroke="#ffffff" stroke-width="15" fill="none" opacity="1" stroke-linejoin="round"/>
<g opacity="1">
<path stroke="#ffffff" stroke-width="15" d="M295.882+194.871L348.264+252.766L296.67+310.662" fill="none" stroke-linecap="round" opacity="1" stroke-linejoin="round"/>
<path stroke="#ffffff" stroke-width="15" d="M232.233+333.505L280.676+172.028" fill="none" stroke-linecap="round" opacity="1" stroke-linejoin="round"/>
<path stroke="#ffffff" stroke-width="15" d="M217.027+194.871L164.645+252.766L216.239+310.662" fill="none" stroke-linecap="round" opacity="1" stroke-linejoin="round"/>
</g>
</g>
<g opacity="1">
<path stroke="#ffffff" stroke-width="15" d="M231.248+85.1386C231.248+84.3773+242.534+72.7324+256.454+72.7324C270.375+72.7324+281.661+84.3773+281.661+85.1386C281.661+85.8999+269.982+73.1263+256.061+73.1263C242.14+73.1263+231.248+85.8999+231.248+85.1386Z" fill="none" stroke-linecap="round" opacity="1" stroke-linejoin="round"/>
<path stroke="#ffffff" stroke-width="15" d="M208.799+64.2648C208.799+63.2859+230.285+41.6186+256.061+41.6186C281.836+41.6186+302.141+63.2859+302.141+64.2648C302.141+65.2436+282.23+41.2248+256.454+41.2248C230.679+41.2248+208.799+65.2436+208.799+64.2648Z" fill="none" stroke-linecap="round" opacity="1" stroke-linejoin="round"/>
<path stroke="#ffffff" stroke-width="15" d="M189.501+43.7848C189.501+43.241+218.295+14.0494+255.273+14.0494C292.251+14.0494+323.408+43.241+323.408+43.7848C323.408+44.3285+292.644+14.0494+255.667+14.0494C218.689+14.0494+189.501+44.3285+189.501+43.7848Z" fill="none" stroke-linecap="round" opacity="1" stroke-linejoin="round"/>
</g>
</g>
</g>
</g>
</svg>
